<?xml version="1.0" encoding="iso-8859-1"?>
<!-- Generator: Adobe Illustrator 26.3.1, SVG Export Plug-In . SVG Version: 6.00 Build 0)  -->
<svg version="1.1" xmlns="http://www.w3.org/2000/svg" xmlns:xlink="http://www.w3.org/1999/xlink" x="0px" y="0px"
	 viewBox="0 0 2048 2048" style="enable-background:new 0 0 2048 2048;" xml:space="preserve">
<g id="Circle">
	<circle style="fill:none;stroke:#000000;stroke-width:100;stroke-miterlimit:10;" cx="1024" cy="1024" r="974"/>
</g>
<g id="Icon">
	<g id="Specs" style="display:none;">
		<path style="fill:#FFFFFF;" d="M1724,1724c-466.861,0-933.528,0-1400,0c0-466.861,0-933.528,0-1400c466.861,0,933.528,0,1400,0
			C1724,790.861,1724,1257.528,1724,1724z M1162.548,918.506c-28.234,31.202-57.869,63.952-85.009,93.944
			c-16.629-14.433-28.718-24.926-47.136-40.913c34.081-31.496,66.374-61.34,93.521-86.427
			c-27.777-28.431-54.133-55.409-85.398-87.411c-46.396,47.608-94.367,96.833-142.811,146.543
			c-11.759-10.894-22.934-21.247-39.084-36.21c52.43-50.621,102.422-98.887,149.499-144.34
			c-28.551-28.966-54.98-55.779-86.808-88.07c-28.941,31.084-58.942,63.307-89.671,96.312
			c-12.815-12.139-23.957-22.694-39.055-36.996c34.518-31.77,66.914-61.586,96.371-88.697
			c-30.119-30.494-57.137-57.85-90.119-91.243c-47.266,48.15-95.379,97.163-142.997,145.672
			c-10.595-9.33-22.035-19.402-38.574-33.965c52.634-50.93,102.626-99.303,150.993-146.104
			c-33.766-34.554-66.132-67.674-98.088-100.376c-84.873,84.844-169.486,169.429-250.922,250.838
			c319.809,319.864,639.939,640.049,957.044,957.209c82.799-82.123,167.486-166.119,252.294-250.234
			c-31.902-31.991-64.642-64.823-100.953-101.234c-49.206,49.916-98.188,99.605-145.129,147.224
			c-13.13-10.537-25.097-20.141-41.652-33.427c51.838-51.069,101.407-99.902,147.198-145.014
			c-27.923-29.442-53.925-56.857-84.462-89.053c-29.929,32.054-59.868,64.119-89.357,95.702
			c-13.17-11.761-24.541-21.914-40.282-35.971c35.646-31.712,68.672-61.092,99.636-88.639
			c-30.965-32.303-57.209-59.681-88.494-92.318c-48.522,50.562-96.677,100.741-141.623,147.576
			c-15.188-11.102-27.562-20.148-43.503-31.802c53.094-51.299,102.639-99.169,151.143-146.034
			C1219.604,975.543,1192.892,948.84,1162.548,918.506z M1121.885,736.501c62.88,63.289,126.993,127.818,185.005,186.207
			c71.022-70.11,143.851-142.005,211.374-208.661c-60.96-62.158-124.044-126.483-185.14-188.78
			C1262.322,596.066,1190.451,667.935,1121.885,736.501z M732.578,1125.8c-58.621,58.198-117.036,116.19-175.375,174.107
			c63.525,63.219,127.732,127.118,191.242,190.323c57.573-58.45,115.887-117.652,173.012-175.647
			C859.388,1252.546,795.542,1188.733,732.578,1125.8z M1401.931,453.387c64.709,64.828,128.408,128.645,192.072,192.427
			c49.208-51.215,48.929-131.462-1.827-184.68C1539.625,406.033,1458.94,402.955,1401.931,453.387z M412.434,1635.749
			c91.368-32.815,174.034-62.506,253.85-91.172c-54.454-54.434-108.666-108.626-162.881-162.822
			C474.645,1462.051,445.026,1544.748,412.434,1635.749z"/>
		<path style="display:inline;" d="M1162.548,918.506c30.344,30.334,57.057,57.037,86.571,86.541
			c-48.505,46.865-98.05,94.735-151.143,146.034c15.941,11.653,28.316,20.699,43.503,31.802
			c44.946-46.836,93.101-97.015,141.623-147.576c31.285,32.637,57.529,60.015,88.494,92.318
			c-30.964,27.547-63.99,56.927-99.636,88.639c15.741,14.057,27.112,24.21,40.282,35.971c29.489-31.583,59.428-63.648,89.357-95.702
			c30.537,32.197,56.538,59.612,84.462,89.053c-45.791,45.112-95.36,93.945-147.198,145.014
			c16.555,13.286,28.522,22.89,41.652,33.427c46.941-47.618,95.923-97.308,145.129-147.224
			c36.31,36.412,69.05,69.243,100.953,101.234c-84.808,84.116-169.495,168.111-252.294,250.234
			c-317.105-317.16-637.235-637.345-957.044-957.209c81.436-81.409,166.049-165.993,250.922-250.838
			c31.956,32.701,64.322,65.822,98.088,100.376c-48.367,46.801-98.359,95.174-150.993,146.104
			c16.539,14.563,27.979,24.636,38.574,33.965c47.618-48.509,95.731-97.522,142.997-145.672c32.981,33.393,60,60.748,90.119,91.243
			c-29.456,27.111-61.852,56.927-96.371,88.697c15.098,14.302,26.24,24.856,39.055,36.996c30.729-33.005,60.73-65.228,89.671-96.312
			c31.828,32.291,58.257,59.104,86.808,88.07c-47.077,45.452-97.069,93.719-149.499,144.34c16.15,14.962,27.325,25.316,39.084,36.21
			c48.444-49.709,96.415-98.935,142.811-146.543c31.265,32.002,57.622,58.98,85.398,87.411
			c-27.147,25.088-59.44,54.931-93.521,86.427c18.418,15.987,30.508,26.48,47.136,40.913
			C1104.678,982.458,1134.313,949.707,1162.548,918.506z"/>
		<path style="display:inline;" d="M1121.885,736.501c68.567-68.565,140.437-140.435,211.239-211.234
			c61.095,62.297,124.18,126.622,185.14,188.78c-67.523,66.657-140.352,138.551-211.374,208.661
			C1248.878,864.319,1184.765,799.79,1121.885,736.501z"/>
		<path style="display:inline;" d="M732.578,1125.8c62.965,62.933,126.81,126.746,188.879,188.783
			c-57.125,57.995-115.439,117.197-173.012,175.647c-63.51-63.205-127.717-127.103-191.242-190.323
			C615.542,1241.99,673.956,1183.998,732.578,1125.8z"/>
		<path style="display:inline;" d="M1401.931,453.387c57.009-50.432,137.694-47.353,190.245,7.747
			c50.756,53.218,51.035,133.465,1.827,184.68C1530.339,582.031,1466.64,518.215,1401.931,453.387z"/>
		<path style="display:inline;" d="M412.434,1635.749c32.592-91.001,62.21-173.698,90.968-253.994
			c54.216,54.196,108.428,108.388,162.881,162.822C586.469,1573.244,503.802,1602.934,412.434,1635.749z"/>
	</g>
	<g id="Onshape" style="display:none;">
		<path style="display:inline;fill:#67BA50;" d="M1485.692,1622.638c0-271.293-1.223-534.596,1.179-797.865
			c0.41-44.947-13.433-68.882-52.565-90.013c-89.949-48.571-176.931-102.635-265.139-154.433
			c-8.729-5.126-19.131-8.019-25.618-21.233c90.365-52.234,180.793-104.186,270.796-156.862c13.984-8.185,23.872-2.92,35.486,3.854
			c99.588,58.093,199.161,116.218,299.258,173.426c17.783,10.163,24.97,21.74,24.911,42.88
			c-0.752,267.256-0.513,534.515-0.439,801.773c0.004,14.327,0.853,27.245-14.942,36.489
			C1669.418,1512.857,1580.794,1566.047,1485.692,1622.638z"/>
		<path style="display:inline;fill:#67BA50;" d="M1309.912,324.87c-244.61,144.751-483.966,286.83-723.998,427.76
			c-23.88,14.021-34.353,28.715-33.878,57.575c1.857,112.786,0.758,225.62,0.758,345.696
			c-54.698-31.422-105.477-60.214-155.87-89.666c-39.101-22.852-92.666-37.952-112.354-72.249
			c-19.723-34.358-5.768-88.247-5.932-133.578c-0.286-79.134,0.534-158.278-0.484-237.4c-0.277-21.498,5.051-34.554,25.252-46.216
			c232.232-134.07,463.783-269.32,695.382-404.483c13.837-8.075,25.352-13.976,42.132-4.029
			C1128.825,220.385,1217.474,271.234,1309.912,324.87z"/>
		<path style="display:inline;fill:#67BA50;" d="M278.557,1141.79c73.333,41.618,140.563,79.534,207.567,117.844
			c169.669,97.01,339.418,193.883,508.608,291.72c20.463,11.833,35.664,11.744,56.043-0.748
			c101.318-62.109,203.67-122.534,310.465-186.428c0.765,15.047,1.664,25.832,1.807,36.626c1.171,88.17,1.817,176.35,3.607,264.507
			c0.345,16.992-2.512,28.405-18.841,37.866c-99.764,57.804-198.991,116.542-297.959,175.703
			c-14.184,8.479-24.832,7.784-38.843-0.282c-236.895-136.39-473.996-272.423-711.394-407.935
			c-15.49-8.842-21.625-18.525-21.463-36.507C279.012,1339.513,278.557,1244.861,278.557,1141.79z"/>
		<path style="display:inline;fill:#686868;" d="M1242.373,1294.79c0-121.998-1.004-238.457,0.808-354.872
			c0.384-24.651-7.565-37.477-27.912-48.496c-38.562-20.884-76.023-43.801-118.568-68.568
			c41.071-23.576,79.014-45.009,116.531-67.165c8.251-4.873,14.344-3.239,21.172,1.492c3.171,2.197,6.717,3.845,10.032,5.843
			c39.733,23.948,91.89,39.445,115.632,74.292c23.086,33.885,5.784,87.868,6.315,133.003c0.883,75.103-0.51,150.236,0.725,225.329
			c0.343,20.847-5.874,33.18-24.592,42.773C1309.426,1255.382,1277.59,1274.787,1242.373,1294.79z"/>
		<path style="display:inline;fill:#686868;" d="M1146.525,706.261c-109.556,63.916-214.171,125.557-319.546,185.872
			c-19.162,10.968-27.322,23.058-26.317,45.597c1.896,42.498,0.547,85.14,0.547,133.299c-40.147-22.74-76.723-43.501-113.351-64.172
			c-8.687-4.902-13.197-11.819-12.386-22.076c0.407-5.146-0.057-10.355,0.043-15.533c0.872-45.181-12.498-98.226,6.807-133.27
			c18.323-33.261,70.686-47.981,108.399-70.316c68.94-40.83,138.45-80.711,206.964-122.239c17.672-10.712,31.24-11.994,48.833,0.116
			C1077.233,664.681,1109.652,683.346,1146.525,706.261z"/>
		<path style="display:inline;fill:#686868;" d="M1166.445,1202.908c0,45.645-0.528,85.282,0.276,124.892
			c0.297,14.627-8.763,20.294-18.924,26.289c-40.068,23.64-78.267,61.488-120.687,67.018
			c-42.983,5.604-80.574-38.778-120.635-60.932c-68.952-38.13-136.053-79.604-204.972-117.797
			c-19.725-10.931-27.779-22.916-26.512-45.497c1.941-34.605,0.51-69.399,0.51-110.509
			c71.301,41.457,137.915,80.136,204.474,118.911c39.07,22.761,78.905,44.37,116.706,69.081
			c18.281,11.951,31.243,10.061,48.519-0.731C1083.189,1249.899,1122.531,1228.327,1166.445,1202.908z"/>
	</g>
	<path id="Git" style="display:none;" d="M1010.421,1443.913c106.124,137.999,49.119,284.906-39.062,344.258
		c-100.272,67.49-240.773,47.459-311.216-46.824c-75.358-100.861-61.216-237.458,35.079-314.566
		c21.982-17.602,31.154-34.265,30.998-62.611c-1.227-222.711-1.111-445.434-0.148-668.148c0.124-28.724-7.222-47.576-30.76-66.887
		c-79.441-65.173-103.552-163.65-67.8-256.642c34.955-90.92,122.276-147.243,223.857-144.39
		c95.222,2.674,177.2,66.375,207.016,160.861c28.252,89.529-2.488,184.703-77.656,247.632
		c-11.749,9.836-24.156,27.256-24.297,41.289c-1.64,163.304-1.017,326.631-0.812,489.951c0.009,6.896,1.79,13.79,1.278,10.093
		c82.345-11.314,161.904-23.77,241.847-32.861c112.222-12.762,214.699-120.923,213.311-231.207
		c-0.202-16.027-10.171-36.778-22.527-47.023c-84.599-70.143-112.989-179.025-69.091-275.797
		c43.534-95.971,145.947-149.143,252.943-131.326c97.273,16.198,174.772,101.46,182.543,207.734
		c5.626,76.943-22.491,143.313-84.199,191.253c-21.149,16.43-28.626,32.581-29.246,58.872
		c-5.412,229.51-224.979,445.89-456.205,451.958C1119.186,1371.295,1057.07,1386.485,1010.421,1443.913z M840.701,1716.462
		c61.242,0.416,114.062-50.128,115.844-110.851c1.837-62.62-55.354-120.404-118.281-119.508
		c-59.429,0.847-112.165,54.563-112.92,115.021C724.556,1664.202,776.389,1716.025,840.701,1716.462z M725.312,454.499
		c-0.884,61.342,53.409,117.201,114.648,117.953c58.04,0.713,114.393-53.5,116.563-112.135
		c2.296-62.048-50.155-116.825-113.032-118.042C779.445,341.035,726.219,391.579,725.312,454.499z M1526.753,799.311
		c64.29,0.734,116.409-50.029,116.702-113.664c0.282-61.281-55.204-117.028-116.173-116.72
		c-58.357,0.295-114.073,55.453-115.011,113.858C1411.255,746.041,1462.874,798.582,1526.753,799.311z"/>
	<g id="Manual">
		<path d="M1574,808.146c0,25.749,0,51.498,0,77.247c-0.266,4.85-0.759,9.701-0.765,14.551
			c-0.305,242.51-0.566,485.02-0.873,727.531c-0.003,2.784-0.055,5.734-0.923,8.325c-13.867,41.415-39.996,71.8-80.42,89.284
			c-4.836,2.092-9.487,4.615-14.223,6.938c-301.382,0-602.764,0-904.146,0c-4.251-2.104-8.411-4.422-12.767-6.278
			c-32.451-13.828-57.267-36.016-72.701-67.882c-4.506-9.304-9.692-19.666-9.716-29.556c-0.719-292.173-0.984-584.348-0.933-876.523
			c0.015-88.031,1.171-176.061,1.844-264.091c0.022-2.812,0.168-5.694,0.793-8.42c12.616-54.971,64.856-97.813,121.225-98.986
			c42.397-0.882,84.806-1.192,127.209-1.749c2.747-0.036,5.494-0.005,8.565-0.005c0.454-9.596,0.515-18.315,1.357-26.957
			c1.274-13.089,16.76-26.855,29.623-26.855c37.277,0,74.557-0.208,111.83,0.186c6.93,0.073,9.633-2.258,11.716-8.595
			c14.831-45.118,45.866-74.53,89.802-90.756c9.27-3.423,19.183-5.099,28.8-7.579c9.257,0,18.515,0,27.772,0
			c0.922,0.403,1.81,1.024,2.772,1.179c59.462,9.594,100.391,41.599,119.689,99.521c1.609,4.829,3.941,6.17,8.795,6.146
			c37.538-0.186,75.077-0.102,112.616-0.102c15.426,0,30.152,13.61,31.182,29.36c0.514,7.857,0.089,15.776,0.089,24.453
			c4.017,0,6.53-0.028,9.043,0.004c42.923,0.553,85.85,0.892,128.767,1.728c54.143,1.055,106.907,42.693,118.904,95.447
			c3.706,16.295,3.16,33.727,3.264,50.647c0.55,89.077,0.672,178.156,0.998,267.234C1573.203,798.445,1573.717,803.295,1574,808.146
			z M562.018,1059.214c-0.075,0-0.15,0-0.225,0c0,183.056,0,366.111,0.001,549.167c0,15.697,16.605,34.534,32.481,35.561
			c22.043,1.426,44.145,2.671,66.224,2.7c220.096,0.291,440.192,0.479,660.288,0.278c44.704-0.041,89.42-1.473,134.104-3.014
			c16.35-0.564,32.762-19.734,32.762-36.018c-0.001-275.742,0.114-551.484-0.079-827.225c-0.056-79.808-0.853-159.617-1.662-239.422
			c-0.156-15.409-1.298-30.887-3.302-46.16c-0.839-6.398-3.515-14.321-8.158-18.075c-8.949-7.234-20.16-10.487-32.266-10.457
			c-39.336,0.095-78.673-0.319-118.009-0.505c-10.298-0.049-10.18,0.009-10.723,10.52c-1.035,20.031-1.758,40.095-3.492,60.069
			c-1.354,15.59-12.19,25.22-27.639,25.775c-28.255,1.015-56.522,2.67-84.778,2.558c-142.933-0.565-285.864-1.57-428.795-2.546
			c-17.054-0.116-27.909-9.687-29.317-26.464c-1.741-20.748-2.58-41.579-3.471-62.388c-0.227-5.291-1.471-7.798-7.403-7.781
			c-36.505,0.108-73.015-0.405-109.516-0.01c-10.156,0.11-20.647,1.398-30.329,4.322c-10.147,3.065-20.575,7.617-21.894,20.842
			c-0.535,5.368-1.626,10.71-1.777,16.084c-1.107,39.367-2.797,78.736-2.89,118.108
			C561.812,769.827,562.018,914.521,562.018,1059.214z M808.585,490.931c144.618,0,288.222,0,432.14,0c0-31.682,0-62.917,0-94.992
			c-3.3,0-6.064,0-8.827,0c-20.824,0-41.651,0.216-62.472-0.06c-21.829-0.289-43.65-1.201-65.48-1.519
			c-7.098-0.103-9.434-3.884-9.775-10.076c-0.509-9.242-0.696-18.517-1.619-27.718c-0.816-8.136-1.038-16.746-3.96-24.188
			c-15.869-40.414-70.343-55.538-104.667-28.911c-14.681,11.389-26.005,25.503-26.322,45.822
			c-0.172,11.034-1.559,22.048-2.368,33.073c-0.549,7.478-3.033,12.708-11.983,12.279c-5.092-0.244-10.235,0.879-15.357,0.906
			c-36.762,0.199-73.525,0.276-110.288,0.39c-2.94,0.009-5.881,0.001-9.02,0.001C808.585,428.343,808.585,459.397,808.585,490.931z"
			/>
		<path style="display:none;fill:#FFFFFF;" d="M1009.294,217.978c-9.617,2.481-19.53,4.156-28.8,7.579
			c-43.936,16.226-74.97,45.638-89.802,90.756c-2.083,6.337-4.786,8.668-11.716,8.595c-37.273-0.395-74.552-0.187-111.83-0.186
			c-12.863,0-28.349,13.767-29.623,26.855c-0.841,8.642-0.903,17.361-1.357,26.957c-3.07,0-5.818-0.031-8.565,0.005
			c-42.404,0.557-84.812,0.867-127.209,1.749c-56.369,1.173-108.609,44.014-121.225,98.986c-0.626,2.726-0.772,5.608-0.793,8.42
			c-0.673,88.03-1.829,176.061-1.844,264.091c-0.051,292.175,0.214,584.35,0.933,876.523c0.024,9.889,5.21,20.252,9.716,29.556
			c15.435,31.866,40.25,54.055,72.701,67.882c4.356,1.856,8.516,4.174,12.767,6.278c-32.904,0-65.807,0-98.65,0
			c0-504.682,0-1009.363,0-1514.045C652.496,217.978,830.895,217.978,1009.294,217.978z"/>
		<path style="display:none;fill:#FFFFFF;" d="M1574,808.146c-0.283-4.851-0.797-9.701-0.814-14.553
			c-0.326-89.078-0.448-178.157-0.998-267.234c-0.104-16.919,0.442-34.352-3.264-50.647
			c-11.997-52.754-64.761-94.392-118.904-95.447c-42.917-0.836-85.844-1.175-128.767-1.728c-2.513-0.032-5.026-0.004-9.043-0.004
			c0-8.676,0.425-16.595-0.089-24.453c-1.031-15.749-15.756-29.359-31.182-29.36c-37.539,0-75.078-0.084-112.616,0.102
			c-4.855,0.024-7.187-1.317-8.795-6.146c-19.298-57.923-60.227-89.927-119.689-99.521c-0.962-0.155-1.85-0.776-2.772-1.179
			c178.978,0,357.956,0,536.933,0C1574,414.7,1574,611.423,1574,808.146z"/>
		<path style="fill:#FFFFFF;" d="M1476.797,1732.022c4.736-2.323,9.387-4.846,14.223-6.938c40.424-17.484,66.553-47.87,80.42-89.284
			c0.868-2.591,0.919-5.542,0.923-8.325c0.307-242.51,0.568-485.02,0.873-727.531c0.006-4.851,0.499-9.701,0.765-14.551
			c0,282.21,0,564.419,0,846.629C1541.599,1732.022,1509.198,1732.022,1476.797,1732.022z"/>
		<path style="fill:#FFFFFF;" d="M562.018,1059.214c0-144.694-0.206-289.388,0.136-434.08c0.093-39.372,1.784-78.742,2.89-118.108
			c0.151-5.373,1.242-10.715,1.777-16.084c1.319-13.225,11.747-17.777,21.894-20.842c9.682-2.924,20.173-4.212,30.329-4.322
			c36.501-0.396,73.01,0.117,109.516,0.01c5.932-0.018,7.177,2.49,7.403,7.781c0.891,20.81,1.729,41.64,3.471,62.388
			c1.408,16.777,12.263,26.348,29.317,26.464c142.931,0.976,285.862,1.981,428.795,2.546c28.256,0.112,56.522-1.543,84.778-2.558
			c15.449-0.555,26.285-10.185,27.639-25.775c1.734-19.974,2.457-40.038,3.492-60.069c0.543-10.511,0.425-10.569,10.723-10.52
			c39.337,0.187,78.674,0.601,118.009,0.505c12.106-0.029,23.317,3.223,32.266,10.457c4.643,3.754,7.319,11.677,8.158,18.075
			c2.003,15.273,3.145,30.751,3.302,46.16c0.809,79.805,1.606,159.614,1.662,239.422c0.193,275.742,0.078,551.484,0.079,827.225
			c0,16.284-16.412,35.454-32.762,36.018c-44.685,1.541-89.4,2.973-134.104,3.014c-220.096,0.202-440.192,0.013-660.288-0.278
			c-22.078-0.029-44.18-1.275-66.224-2.7c-15.877-1.027-32.481-19.864-32.481-35.561c-0.001-183.056-0.001-366.111-0.001-549.167
			C561.868,1059.214,561.943,1059.214,562.018,1059.214z M1022.395,1056.937c0-0.307,0-0.614,0-0.921
			c-29.313,0-58.627-0.223-87.937,0.044c-73.782,0.67-147.563,1.496-221.342,2.405c-21.648,0.267-34.842,15.859-32.263,37.535
			c2.169,18.228,9.164,25.646,27.129,27.386c14.562,1.41,29.196,2.606,43.814,2.814c44.733,0.637,89.474,1.046,134.211,1.014
			c126.766-0.091,253.532-0.281,380.297-0.832c25.666-0.112,51.354-1.558,76.965-3.348c6.102-0.427,13.984-3.093,17.482-7.54
			c8.251-10.491,10.199-23.225,6.064-36.526c-3.675-11.819-10.714-18.707-23.682-19.207c-14.363-0.555-28.696-2.653-43.046-2.693
			C1207.524,1056.812,1114.959,1056.937,1022.395,1056.937z M1020.562,1344.714c0-0.129,0-0.258,0-0.388
			c-63.495,0-126.992-0.325-190.484,0.118c-40.076,0.28-80.157,1.364-120.211,2.792c-15.607,0.557-25.401,10.494-28.708,26.285
			c-4.24,20.244,8.011,37.249,28.295,38.56c19.738,1.276,39.512,2.721,59.274,2.776c130.586,0.359,261.175,0.699,391.76,0.332
			c59.606-0.167,119.213-1.731,178.808-3.144c17.965-0.426,23.82-5.9,28.189-22.568c5.794-22.103-6.738-40.446-29.301-41.958
			c-20.245-1.357-40.543-2.613-60.822-2.682C1191.763,1344.546,1106.162,1344.714,1020.562,1344.714z M1021.711,768.12
			c0-0.019,0-0.039,0-0.058c-70.946,0-141.893-0.274-212.837,0.119c-33.905,0.188-67.801,1.726-101.705,2.471
			c-12.013,0.264-18.796,7.388-23.192,17.311c-10.482,23.666,3.141,46.37,28.98,47.818c24.363,1.365,48.772,2.61,73.163,2.672
			c145.489,0.367,290.979,0.586,436.468,0.361c37.756-0.059,75.513-1.74,113.261-2.954c23.625-0.759,32.106-11.007,32.67-34.639
			c0.453-19.01-9.574-28.919-28.44-30.071c-21.023-1.284-42.074-2.814-63.118-2.895
			C1191.879,767.929,1106.795,768.12,1021.711,768.12z"/>
		<path style="fill:#FFFFFF;" d="M808.585,490.931c0-31.534,0-62.588,0-94.992c3.14,0,6.08,0.008,9.02-0.001
			c36.763-0.114,73.526-0.191,110.288-0.39c5.122-0.028,10.265-1.151,15.357-0.906c8.95,0.429,11.434-4.801,11.983-12.279
			c0.809-11.025,2.196-22.039,2.368-33.073c0.317-20.319,11.641-34.433,26.322-45.822c34.323-26.627,88.798-11.503,104.667,28.911
			c2.922,7.441,3.144,16.051,3.96,24.188c0.923,9.201,1.11,18.475,1.619,27.718c0.341,6.191,2.677,9.972,9.775,10.076
			c21.829,0.318,43.65,1.23,65.48,1.519c20.821,0.276,41.648,0.06,62.472,0.06c2.763,0,5.526,0,8.827,0c0,32.075,0,63.31,0,94.992
			C1096.807,490.931,953.203,490.931,808.585,490.931z"/>
		<path d="M1022.395,1056.937c92.564,0,185.128-0.125,277.692,0.13c14.35,0.04,28.682,2.137,43.046,2.693
			c12.968,0.501,20.008,7.389,23.682,19.207c4.135,13.3,2.187,26.035-6.064,36.526c-3.498,4.448-11.38,7.114-17.482,7.54
			c-25.611,1.79-51.299,3.236-76.965,3.348c-126.765,0.551-253.531,0.741-380.297,0.832c-44.737,0.032-89.478-0.377-134.211-1.014
			c-14.618-0.208-29.252-1.404-43.814-2.814c-17.965-1.74-24.96-9.158-27.129-27.386c-2.579-21.676,10.614-37.268,32.263-37.535
			c73.78-0.909,147.56-1.734,221.342-2.405c29.31-0.266,58.625-0.044,87.937-0.044
			C1022.396,1056.323,1022.396,1056.63,1022.395,1056.937z"/>
		<path d="M1020.562,1344.714c85.6,0,171.201-0.168,256.801,0.124c20.279,0.069,40.576,1.324,60.822,2.682
			c22.563,1.513,35.095,19.855,29.301,41.958c-4.369,16.667-10.224,22.141-28.189,22.568c-59.595,1.414-119.202,2.977-178.808,3.144
			c-130.586,0.366-261.174,0.027-391.76-0.332c-19.762-0.054-39.536-1.5-59.274-2.776c-20.285-1.311-32.536-18.316-28.295-38.56
			c3.307-15.791,13.102-25.728,28.708-26.285c40.054-1.428,80.134-2.513,120.211-2.792c63.492-0.443,126.989-0.118,190.484-0.118
			C1020.562,1344.455,1020.562,1344.585,1020.562,1344.714z"/>
		<path d="M1021.711,768.12c85.084,0,170.168-0.191,255.25,0.135c21.044,0.081,42.096,1.611,63.118,2.895
			c18.866,1.152,28.894,11.061,28.44,30.071c-0.564,23.632-9.045,33.88-32.67,34.639c-37.748,1.213-75.506,2.895-113.261,2.954
			c-145.489,0.226-290.979,0.006-436.468-0.361c-24.392-0.061-48.8-1.306-73.163-2.672c-25.838-1.448-39.462-24.151-28.98-47.818
			c4.395-9.923,11.178-17.047,23.192-17.311c33.904-0.745,67.8-2.284,101.705-2.471c70.944-0.393,141.891-0.119,212.837-0.119
			C1021.711,768.082,1021.711,768.101,1021.711,768.12z"/>
	</g>
</g>
</svg>
