<?xml version="1.0" standalone="no"?>
<!DOCTYPE svg PUBLIC "-//W3C//DTD SVG 20010904//EN"
 "http://www.w3.org/TR/2001/REC-SVG-20010904/DTD/svg10.dtd">
<svg version="1.0" xmlns="http://www.w3.org/2000/svg"
 width="4096.000000pt" height="7000.000000pt" viewBox="0 0 4096.000000 7000.000000"
 preserveAspectRatio="xMidYMid meet">

<g transform="translate(0.000000,5407.000000) scale(0.100000,-0.100000)" fill="blue" stroke="none">
<path d="M3585 54054 c-447 -69 -1031 -320 -1483 -638 -577 -406 -1072 -955
-1441 -1600 -228 -398 -395 -804 -527 -1280 -60 -216 -92 -387 -112 -596 -16
-164 -17 -1627 -17 -22835 l0 -22660 27 -130 c131 -631 432 -1172 882 -1584
386 -354 850 -576 1361 -653 119 -17 491 -17 610 0 202 31 430 95 596 168 269
118 1079 538 1564 812 44 25 161 90 260 145 359 199 482 269 575 327 52 32
136 83 185 112 50 28 108 64 130 79 22 15 375 228 785 475 1049 630 2246 1350
3825 2299 748 450 1459 877 1580 950 121 73 888 534 1705 1025 5353 3219 4848
2916 5020 3004 58 29 132 65 165 79 132 56 295 128 394 172 109 49 291 110
426 144 219 55 551 55 770 0 135 -34 317 -95 426 -144 99 -44 262 -116 394
-172 71 -31 246 -119 330 -167 57 -32 886 -529 2605 -1563 421 -253 1433 -862
2250 -1353 817 -491 1584 -952 1705 -1025 121 -73 832 -500 1580 -950 1579
-949 2776 -1669 3825 -2299 410 -247 763 -460 785 -475 22 -15 81 -51 130 -79
50 -29 133 -80 185 -112 93 -58 216 -128 575 -327 99 -55 216 -120 260 -145
485 -274 1295 -694 1564 -812 166 -73 394 -137 596 -168 119 -17 491 -17 610
0 511 77 975 299 1361 653 450 412 751 953 882 1584 l27 130 0 22660 c0 21208
-1 22671 -17 22835 -27 285 -88 550 -208 910 -427 1281 -1325 2354 -2415 2886
-338 165 -672 278 -948 319 -94 13 -1786 15 -16898 14 -14302 -1 -16807 -3
-16884 -15z"/>
</g>
</svg>
