<?xml version="1.0" encoding="utf-8"?>
<!-- Generator: Adobe Illustrator 26.3.1, SVG Export Plug-In . SVG Version: 6.00 Build 0)  -->
<svg version="1.1" xmlns="http://www.w3.org/2000/svg" x="0px" y="0px"
	 viewBox="0 0 2048 2048" style="enable-background:new 0 0 2048 2048;" xml:space="preserve">
<style type="text/css">
	.st0{fill:none;stroke:#4DC6FF;stroke-width:100;stroke-miterlimit:10;}
	#Git{fill:#4DC6FF;}
</style>
<g id="Circle">
	<circle class="st0" cx="1024" cy="1024" r="974"/>
</g>
<g id="Icon">
	<path id="Git" d="M1010.42,1443.91c106.12,138,49.12,284.91-39.06,344.26c-100.27,67.49-240.77,47.46-311.22-46.82
		c-75.36-100.86-61.22-237.46,35.08-314.57c21.98-17.6,31.15-34.27,31-62.61c-1.23-222.71-1.11-445.43-0.15-668.15
		c0.12-28.72-7.22-47.58-30.76-66.89c-79.44-65.17-103.55-163.65-67.8-256.64c34.95-90.92,122.28-147.24,223.86-144.39
		c95.22,2.67,177.2,66.37,207.02,160.86c28.25,89.53-2.49,184.7-77.66,247.63c-11.75,9.84-24.16,27.26-24.3,41.29
		c-1.64,163.3-1.02,326.63-0.81,489.95c0.01,6.9,1.79,13.79,1.28,10.09c82.35-11.31,161.9-23.77,241.85-32.86
		c112.22-12.76,214.7-120.92,213.31-231.21c-0.2-16.03-10.17-36.78-22.53-47.02c-84.6-70.14-112.99-179.02-69.09-275.8
		c43.53-95.97,145.95-149.14,252.94-131.33c97.27,16.2,174.77,101.46,182.54,207.73c5.63,76.94-22.49,143.31-84.2,191.25
		c-21.15,16.43-28.63,32.58-29.25,58.87c-5.41,229.51-224.98,445.89-456.21,451.96C1119.19,1371.3,1057.07,1386.49,1010.42,1443.91z
		 M840.7,1716.46c61.24,0.42,114.06-50.13,115.84-110.85c1.84-62.62-55.35-120.4-118.28-119.51
		c-59.43,0.85-112.17,54.56-112.92,115.02C724.56,1664.2,776.39,1716.03,840.7,1716.46z M725.31,454.5
		c-0.88,61.34,53.41,117.2,114.65,117.95c58.04,0.71,114.39-53.5,116.56-112.14c2.3-62.05-50.16-116.82-113.03-118.04
		C779.44,341.03,726.22,391.58,725.31,454.5z M1526.75,799.31c64.29,0.73,116.41-50.03,116.7-113.66
		c0.28-61.28-55.2-117.03-116.17-116.72c-58.36,0.29-114.07,55.45-115.01,113.86C1411.25,746.04,1462.87,798.58,1526.75,799.31z"/>
</g>
</svg>
