<?xml version="1.0" encoding="iso-8859-1"?>
<!-- Generator: Adobe Illustrator 26.3.1, SVG Export Plug-In . SVG Version: 6.00 Build 0)  -->
<svg version="1.1" xmlns="http://www.w3.org/2000/svg" x="0px" y="0px"
	 viewBox="0 0 2048 2048" style="enable-background:new 0 0 2048 2048;" xml:space="preserve">
<g id="Circle">
	<circle style="fill:none;stroke:#3D5A80;stroke-width:100;stroke-miterlimit:10;" cx="1024" cy="1024" r="974"/>
</g>
<g id="Icon">
	<g id="Manual" style="fill:#3D5A80;">
		<path d="M1574,808.146c0,25.749,0,51.498,0,77.247c-0.266,4.85-0.759,9.701-0.765,14.551
			c-0.305,242.51-0.566,485.02-0.873,727.531c-0.003,2.784-0.055,5.734-0.923,8.325c-13.867,41.415-39.996,71.8-80.42,89.284
			c-4.836,2.092-9.487,4.615-14.223,6.938c-301.382,0-602.764,0-904.146,0c-4.251-2.104-8.411-4.422-12.767-6.278
			c-32.451-13.828-57.267-36.016-72.701-67.882c-4.506-9.304-9.692-19.666-9.716-29.556c-0.719-292.173-0.984-584.348-0.933-876.523
			c0.015-88.031,1.171-176.061,1.844-264.091c0.022-2.812,0.168-5.694,0.793-8.42c12.616-54.971,64.856-97.813,121.225-98.986
			c42.397-0.882,84.806-1.192,127.209-1.749c2.747-0.036,5.494-0.005,8.565-0.005c0.454-9.596,0.515-18.315,1.357-26.957
			c1.274-13.089,16.76-26.855,29.623-26.855c37.277,0,74.557-0.208,111.83,0.186c6.93,0.073,9.633-2.258,11.716-8.595
			c14.831-45.118,45.866-74.53,89.802-90.756c9.27-3.423,19.183-5.099,28.8-7.579c9.257,0,18.515,0,27.772,0
			c0.922,0.403,1.81,1.024,2.772,1.179c59.462,9.594,100.391,41.599,119.689,99.521c1.609,4.829,3.941,6.17,8.795,6.146
			c37.538-0.186,75.077-0.102,112.616-0.102c15.426,0,30.152,13.61,31.182,29.36c0.514,7.857,0.089,15.776,0.089,24.453
			c4.017,0,6.53-0.028,9.043,0.004c42.923,0.553,85.85,0.892,128.767,1.728c54.143,1.055,106.907,42.693,118.904,95.447
			c3.706,16.295,3.16,33.727,3.264,50.647c0.55,89.077,0.672,178.156,0.998,267.234C1573.203,798.445,1573.717,803.295,1574,808.146
			z M562.018,1059.214c-0.075,0-0.15,0-0.225,0c0,183.056,0,366.111,0.001,549.167c0,15.697,16.605,34.534,32.481,35.561
			c22.043,1.426,44.145,2.671,66.224,2.7c220.096,0.291,440.192,0.479,660.288,0.278c44.704-0.041,89.42-1.473,134.104-3.014
			c16.35-0.564,32.762-19.734,32.762-36.018c-0.001-275.742,0.114-551.484-0.079-827.225c-0.056-79.808-0.853-159.617-1.662-239.422
			c-0.156-15.409-1.298-30.887-3.302-46.16c-0.839-6.398-3.515-14.321-8.158-18.075c-8.949-7.234-20.16-10.487-32.266-10.457
			c-39.336,0.095-78.673-0.319-118.009-0.505c-10.298-0.049-10.18,0.009-10.723,10.52c-1.035,20.031-1.758,40.095-3.492,60.069
			c-1.354,15.59-12.19,25.22-27.639,25.775c-28.255,1.015-56.522,2.67-84.778,2.558c-142.933-0.565-285.864-1.57-428.795-2.546
			c-17.054-0.116-27.909-9.687-29.317-26.464c-1.741-20.748-2.58-41.579-3.471-62.388c-0.227-5.291-1.471-7.798-7.403-7.781
			c-36.505,0.108-73.015-0.405-109.516-0.01c-10.156,0.11-20.647,1.398-30.329,4.322c-10.147,3.065-20.575,7.617-21.894,20.842
			c-0.535,5.368-1.626,10.71-1.777,16.084c-1.107,39.367-2.797,78.736-2.89,118.108
			C561.812,769.827,562.018,914.521,562.018,1059.214z M808.585,490.931c144.618,0,288.222,0,432.14,0c0-31.682,0-62.917,0-94.992
			c-3.3,0-6.064,0-8.827,0c-20.824,0-41.651,0.216-62.472-0.06c-21.829-0.289-43.65-1.201-65.48-1.519
			c-7.098-0.103-9.434-3.884-9.775-10.076c-0.509-9.242-0.696-18.517-1.619-27.718c-0.816-8.136-1.038-16.746-3.96-24.188
			c-15.869-40.414-70.343-55.538-104.667-28.911c-14.681,11.389-26.005,25.503-26.322,45.822
			c-0.172,11.034-1.559,22.048-2.368,33.073c-0.549,7.478-3.033,12.708-11.983,12.279c-5.092-0.244-10.235,0.879-15.357,0.906
			c-36.762,0.199-73.525,0.276-110.288,0.39c-2.94,0.009-5.881,0.001-9.02,0.001C808.585,428.343,808.585,459.397,808.585,490.931z"
			/>
		<path d="M1022.395,1056.937c92.564,0,185.128-0.125,277.692,0.13c14.35,0.04,28.682,2.137,43.046,2.693
			c12.968,0.501,20.008,7.389,23.682,19.207c4.135,13.3,2.187,26.035-6.064,36.526c-3.498,4.448-11.38,7.114-17.482,7.54
			c-25.611,1.79-51.299,3.236-76.965,3.348c-126.765,0.551-253.531,0.741-380.297,0.832c-44.737,0.032-89.478-0.377-134.211-1.014
			c-14.618-0.208-29.252-1.404-43.814-2.814c-17.965-1.74-24.96-9.158-27.129-27.386c-2.579-21.676,10.614-37.268,32.263-37.535
			c73.78-0.909,147.56-1.734,221.342-2.405c29.31-0.266,58.625-0.044,87.937-0.044
			C1022.396,1056.323,1022.396,1056.63,1022.395,1056.937z"/>
		<path d="M1020.562,1344.714c85.6,0,171.201-0.168,256.801,0.124c20.279,0.069,40.576,1.324,60.822,2.682
			c22.563,1.513,35.095,19.855,29.301,41.958c-4.369,16.667-10.224,22.141-28.189,22.568c-59.595,1.414-119.202,2.977-178.808,3.144
			c-130.586,0.366-261.174,0.027-391.76-0.332c-19.762-0.054-39.536-1.5-59.274-2.776c-20.285-1.311-32.536-18.316-28.295-38.56
			c3.307-15.791,13.102-25.728,28.708-26.285c40.054-1.428,80.134-2.513,120.211-2.792c63.492-0.443,126.989-0.118,190.484-0.118
			C1020.562,1344.455,1020.562,1344.585,1020.562,1344.714z"/>
		<path d="M1021.711,768.12c85.084,0,170.168-0.191,255.25,0.135c21.044,0.081,42.096,1.611,63.118,2.895
			c18.866,1.152,28.894,11.061,28.44,30.071c-0.564,23.632-9.045,33.88-32.67,34.639c-37.748,1.213-75.506,2.895-113.261,2.954
			c-145.489,0.226-290.979,0.006-436.468-0.361c-24.392-0.061-48.8-1.306-73.163-2.672c-25.838-1.448-39.462-24.151-28.98-47.818
			c4.395-9.923,11.178-17.047,23.192-17.311c33.904-0.745,67.8-2.284,101.705-2.471c70.944-0.393,141.891-0.119,212.837-0.119
			C1021.711,768.082,1021.711,768.101,1021.711,768.12z"/>
	</g>
</g>
</svg>
