<?xml version="1.0" encoding="UTF-8"?><svg id="Layer_2" xmlns="http://www.w3.org/2000/svg" viewBox="0 0 1689.08 2025.02"><defs><style>.cls-1{fill:#4DC6FF;}</style></defs><g id="Layer_1-2"><g><path class="cls-1" d="M.12,1013.38c0-167.42,.02-334.84-.12-502.26,0-4.74,1.68-7.08,5.6-9.33,57.73-33.21,115.36-66.58,173.02-99.89,53.2-30.73,106.43-61.41,159.62-92.15,50.68-29.28,101.34-58.61,152.02-87.9,47.05-27.19,94.14-54.32,141.19-81.51,46.21-26.7,92.4-53.46,138.61-80.17,34.06-19.69,68.18-39.29,102.16-59.13,3.2-1.87,5.31-.96,7.9,.54,32.25,18.65,64.51,37.27,96.77,55.89,43.01,24.83,86.03,49.66,129.05,74.48,43.16,24.9,86.33,49.78,129.49,74.67,43.3,24.97,86.61,49.94,129.9,74.92,44.55,25.71,89.09,51.45,133.64,77.17,43.15,24.91,86.32,49.8,129.48,74.69,19.42,11.2,38.81,22.44,58.29,33.52,2.54,1.44,2.5,2.63,1.2,4.88-27.77,48.21-55.5,96.44-83.21,144.69-13.17,22.93-26.39,45.84-39.36,68.89-2.25,3.99-3.84,5.24-8.35,2.6-38.29-22.36-76.73-44.47-115.14-66.64-43.01-24.84-86.02-49.67-129.04-74.49-40.92-23.62-81.85-47.22-122.77-70.83-43.3-24.98-86.61-49.95-129.9-74.94-42.18-24.35-84.34-48.71-126.51-73.07-18.01-10.4-36.06-20.75-54.01-31.27-2.88-1.69-5.07-1.59-7.9,.06-76.7,44.52-153.43,89-230.2,133.42-69.37,40.14-138.79,80.17-208.17,120.3-58.48,33.83-116.91,67.76-175.45,101.5-3.21,1.85-3.98,3.9-3.97,7.3,.12,33.42-.09,66.84,.13,100.26,1.35,202.11,.34,404.23,.64,606.35,0,4.88,1.24,7.57,5.72,10.15,81.12,46.55,162.08,93.37,243.11,140.07,69.02,39.78,138.08,79.48,207.11,119.24,54.63,31.47,109.27,62.94,163.82,94.56,2.52,1.46,3.92,.25,5.56-.69,15.53-8.91,31-17.9,46.49-26.86,42.55-24.61,85.1-49.2,127.64-73.82,39.5-22.86,78.97-45.76,118.46-68.63,43.95-25.46,87.91-50.91,131.87-76.36,44.1-25.53,88.21-51.03,132.31-76.56,40.05-23.18,80.14-46.31,120.09-69.67,4.35-2.54,6.05-1.7,8.41,2.42,26.02,45.49,52.24,90.88,78.42,136.28,14.74,25.57,29.44,51.15,44.35,76.62,2.27,3.88,.16,5.03-2.53,6.58-25.28,14.59-50.53,29.22-75.81,43.82-40.07,23.15-80.17,46.26-120.24,69.42-43.14,24.93-86.27,49.89-129.4,74.83-71.61,41.42-143.2,82.86-214.82,124.26-65.48,37.84-130.99,75.63-196.48,113.45-21.64,12.5-43.32,24.95-64.83,37.67-4.94,2.92-8.67,3.22-13.99,.11-50.42-29.41-101.05-58.47-151.64-87.59-54.5-31.38-109.03-62.71-163.52-94.1-53.65-30.91-107.26-61.9-160.91-92.81-52.26-30.11-104.55-60.15-156.81-90.25-47.51-27.37-94.98-54.79-142.48-82.18-30.18-17.4-60.32-34.85-90.62-52.02-3.53-2-3.96-4.32-3.96-7.74,.05-167.58,.04-335.16,.04-502.74Z"/><path class="cls-1" d="M416.57,1013.35c0-86.69,.04-173.39-.13-260.08,0-4.43,1.56-6.56,5.13-8.61,46.82-26.94,93.56-54.02,140.33-81.04,47.05-27.18,94.13-54.32,141.18-81.51,46.21-26.7,92.4-53.45,138.6-80.17,10.33-5.97,20.73-11.82,30.99-17.91,2.27-1.34,4.01-1.36,6.22-.09,42.29,24.46,84.61,48.89,126.93,73.3,45.67,26.34,91.37,52.66,137.05,79,41.91,24.16,83.79,48.37,125.76,72.42,3.01,1.72,2.75,3.05,1.3,5.53-26.88,46.11-53.72,92.25-80.55,138.4-14.59,25.09-29.21,50.17-43.63,75.36-1.94,3.4-3.44,3.61-6.69,1.73-55.44-32-110.95-63.89-166.45-95.8-30.33-17.45-60.71-34.82-90.92-52.47-3.92-2.29-6.77-2.23-10.55-.04-35.15,20.38-70.39,40.62-105.61,60.89-29.21,16.8-58.39,33.66-87.72,50.27-4.01,2.27-5.53,4.69-5.52,9.37,.16,74.42,.15,148.85,.01,223.27,0,4.09,1.2,6.28,4.77,8.31,42.87,24.44,85.63,49.06,128.43,73.61,22.66,13,45.37,25.91,67.97,39.01,2.58,1.5,4.42,1.5,6.96,.02,38.46-22.39,76.99-44.67,115.49-66.99,46.46-26.92,92.91-53.85,139.38-80.77q7.93-4.59,12.65,3.47c40.6,69.66,81.18,139.33,121.86,208.95,1.8,3.08,1.44,4.31-1.74,6.15-68.4,39.55-136.72,79.24-205.04,118.92-58.7,34.1-117.45,68.12-175.98,102.49-7.08,4.16-12.13,4.82-19.77,.35-61.08-35.78-122.52-70.94-183.87-106.26-56.74-32.66-113.5-65.27-170.24-97.93-30.88-17.78-61.7-35.68-92.65-53.33-3.2-1.82-4.01-3.83-4.01-7.25,.08-86.86,.07-173.71,.07-260.57Z"/></g></g></svg>