<?xml version="1.0" encoding="iso-8859-1"?>
<!-- Generator: Adobe Illustrator 26.3.1, SVG Export Plug-In . SVG Version: 6.00 Build 0)  -->
<svg version="1.1" xmlns="http://www.w3.org/2000/svg" x="0px" y="0px"
	 viewBox="0 0 2048 2048" style="enable-background:new 0 0 2048 2048;" xml:space="preserve">
<g id="Circle">
	<circle style="fill:none;stroke:#4DC6FF;stroke-width:100;stroke-miterlimit:10;" cx="1024" cy="1024" r="974"/>
</g>
<g id="Icon">
	<g id="Specs" style="display:inline;fill:#4DC6FF">
		<path style="display:inline;" d="M1162.548,918.506c30.344,30.334,57.057,57.037,86.571,86.541
			c-48.505,46.865-98.05,94.735-151.143,146.034c15.941,11.653,28.316,20.699,43.503,31.802
			c44.946-46.836,93.101-97.015,141.623-147.576c31.285,32.637,57.529,60.015,88.494,92.318
			c-30.964,27.547-63.99,56.927-99.636,88.639c15.741,14.057,27.112,24.21,40.282,35.971c29.489-31.583,59.428-63.648,89.357-95.702
			c30.537,32.197,56.538,59.612,84.462,89.053c-45.791,45.112-95.36,93.945-147.198,145.014
			c16.555,13.286,28.522,22.89,41.652,33.427c46.941-47.618,95.923-97.308,145.129-147.224
			c36.31,36.412,69.05,69.243,100.953,101.234c-84.808,84.116-169.495,168.111-252.294,250.234
			c-317.105-317.16-637.235-637.345-957.044-957.209c81.436-81.409,166.049-165.993,250.922-250.838
			c31.956,32.701,64.322,65.822,98.088,100.376c-48.367,46.801-98.359,95.174-150.993,146.104
			c16.539,14.563,27.979,24.636,38.574,33.965c47.618-48.509,95.731-97.522,142.997-145.672c32.981,33.393,60,60.748,90.119,91.243
			c-29.456,27.111-61.852,56.927-96.371,88.697c15.098,14.302,26.24,24.856,39.055,36.996c30.729-33.005,60.73-65.228,89.671-96.312
			c31.828,32.291,58.257,59.104,86.808,88.07c-47.077,45.452-97.069,93.719-149.499,144.34c16.15,14.962,27.325,25.316,39.084,36.21
			c48.444-49.709,96.415-98.935,142.811-146.543c31.265,32.002,57.622,58.98,85.398,87.411
			c-27.147,25.088-59.44,54.931-93.521,86.427c18.418,15.987,30.508,26.48,47.136,40.913
			C1104.678,982.458,1134.313,949.707,1162.548,918.506z"/>
		<path style="display:inline;" d="M1121.885,736.501c68.567-68.565,140.437-140.435,211.239-211.234
			c61.095,62.297,124.18,126.622,185.14,188.78c-67.523,66.657-140.352,138.551-211.374,208.661
			C1248.878,864.319,1184.765,799.79,1121.885,736.501z"/>
		<path style="display:inline;" d="M732.578,1125.8c62.965,62.933,126.81,126.746,188.879,188.783
			c-57.125,57.995-115.439,117.197-173.012,175.647c-63.51-63.205-127.717-127.103-191.242-190.323
			C615.542,1241.99,673.956,1183.998,732.578,1125.8z"/>
		<path style="display:inline;" d="M1401.931,453.387c57.009-50.432,137.694-47.353,190.245,7.747
			c50.756,53.218,51.035,133.465,1.827,184.68C1530.339,582.031,1466.64,518.215,1401.931,453.387z"/>
		<path style="display:inline;" d="M412.434,1635.749c32.592-91.001,62.21-173.698,90.968-253.994
			c54.216,54.196,108.428,108.388,162.881,162.822C586.469,1573.244,503.802,1602.934,412.434,1635.749z"/>
	</g>
</g>
</svg>
