<?xml version="1.0" encoding="utf-8"?>
<!-- Generator: Adobe Illustrator 26.3.1, SVG Export Plug-In . SVG Version: 6.00 Build 0)  -->
<svg version="1.1" xmlns="http://www.w3.org/2000/svg" x="0px" y="0px"
	 viewBox="0 0 2048 2048" style="enable-background:new 0 0 2048 2048;" xml:space="preserve">
<style type="text/css">
	.st0{fill:none;stroke:#3D5A80;stroke-width:100;stroke-miterlimit:10;}
	#Onshape{fill:#3D5A80;}
	#Git{fill:none;}
</style>
<g id="Circle">
	<circle class="st0" cx="1024" cy="1024" r="974"/>
</g>
<g id="Icon">
	<g id="Onshape">
		<path class="st1" d="M1485.69,1622.64c0-271.29-1.22-534.6,1.18-797.87c0.41-44.95-13.43-68.88-52.57-90.01
			c-89.95-48.57-176.93-102.63-265.14-154.43c-8.73-5.13-19.13-8.02-25.62-21.23c90.37-52.23,180.79-104.19,270.8-156.86
			c13.98-8.18,23.87-2.92,35.49,3.85c99.59,58.09,199.16,116.22,299.26,173.43c17.78,10.16,24.97,21.74,24.91,42.88
			c-0.75,267.26-0.51,534.51-0.44,801.77c0,14.33,0.85,27.24-14.94,36.49C1669.42,1512.86,1580.79,1566.05,1485.69,1622.64z"/>
		<path class="st1" d="M1309.91,324.87c-244.61,144.75-483.97,286.83-724,427.76c-23.88,14.02-34.35,28.71-33.88,57.57
			c1.86,112.79,0.76,225.62,0.76,345.7c-54.7-31.42-105.48-60.21-155.87-89.67c-39.1-22.85-92.67-37.95-112.35-72.25
			c-19.72-34.36-5.77-88.25-5.93-133.58c-0.29-79.13,0.53-158.28-0.48-237.4c-0.28-21.5,5.05-34.55,25.25-46.22
			c232.23-134.07,463.78-269.32,695.38-404.48c13.84-8.08,25.35-13.98,42.13-4.03C1128.82,220.38,1217.47,271.23,1309.91,324.87z"/>
		<path class="st1" d="M278.56,1141.79c73.33,41.62,140.56,79.53,207.57,117.84c169.67,97.01,339.42,193.88,508.61,291.72
			c20.46,11.83,35.66,11.74,56.04-0.75c101.32-62.11,203.67-122.53,310.47-186.43c0.77,15.05,1.66,25.83,1.81,36.63
			c1.17,88.17,1.82,176.35,3.61,264.51c0.34,16.99-2.51,28.4-18.84,37.87c-99.76,57.8-198.99,116.54-297.96,175.7
			c-14.18,8.48-24.83,7.78-38.84-0.28c-236.89-136.39-474-272.42-711.39-407.94c-15.49-8.84-21.63-18.53-21.46-36.51
			C279.01,1339.51,278.56,1244.86,278.56,1141.79z"/>
		<path class="st2" d="M1242.37,1294.79c0-122-1-238.46,0.81-354.87c0.38-24.65-7.57-37.48-27.91-48.5
			c-38.56-20.88-76.02-43.8-118.57-68.57c41.07-23.58,79.01-45.01,116.53-67.16c8.25-4.87,14.34-3.24,21.17,1.49
			c3.17,2.2,6.72,3.84,10.03,5.84c39.73,23.95,91.89,39.44,115.63,74.29c23.09,33.88,5.78,87.87,6.31,133
			c0.88,75.1-0.51,150.24,0.72,225.33c0.34,20.85-5.87,33.18-24.59,42.77C1309.43,1255.38,1277.59,1274.79,1242.37,1294.79z"/>
		<path class="st2" d="M1146.53,706.26c-109.56,63.92-214.17,125.56-319.55,185.87c-19.16,10.97-27.32,23.06-26.32,45.6
			c1.9,42.5,0.55,85.14,0.55,133.3c-40.15-22.74-76.72-43.5-113.35-64.17c-8.69-4.9-13.2-11.82-12.39-22.08
			c0.41-5.15-0.06-10.36,0.04-15.53c0.87-45.18-12.5-98.23,6.81-133.27c18.32-33.26,70.69-47.98,108.4-70.32
			c68.94-40.83,138.45-80.71,206.96-122.24c17.67-10.71,31.24-11.99,48.83,0.12C1077.23,664.68,1109.65,683.35,1146.53,706.26z"/>
		<path class="st2" d="M1166.44,1202.91c0,45.64-0.53,85.28,0.28,124.89c0.3,14.63-8.76,20.29-18.92,26.29
			c-40.07,23.64-78.27,61.49-120.69,67.02c-42.98,5.6-80.57-38.78-120.64-60.93c-68.95-38.13-136.05-79.6-204.97-117.8
			c-19.73-10.93-27.78-22.92-26.51-45.5c1.94-34.6,0.51-69.4,0.51-110.51c71.3,41.46,137.92,80.14,204.47,118.91
			c39.07,22.76,78.9,44.37,116.71,69.08c18.28,11.95,31.24,10.06,48.52-0.73C1083.19,1249.9,1122.53,1228.33,1166.44,1202.91z"/>
	</g>
	<path id="Git" d="M1010.42,1443.91c106.12,138,49.12,284.91-39.06,344.26c-100.27,67.49-240.77,47.46-311.22-46.82
		c-75.36-100.86-61.22-237.46,35.08-314.57c21.98-17.6,31.15-34.27,31-62.61c-1.23-222.71-1.11-445.43-0.15-668.15
		c0.12-28.72-7.22-47.58-30.76-66.89c-79.44-65.17-103.55-163.65-67.8-256.64c34.95-90.92,122.28-147.24,223.86-144.39
		c95.22,2.67,177.2,66.37,207.02,160.86c28.25,89.53-2.49,184.7-77.66,247.63c-11.75,9.84-24.16,27.26-24.3,41.29
		c-1.64,163.3-1.02,326.63-0.81,489.95c0.01,6.9,1.79,13.79,1.28,10.09c82.35-11.31,161.9-23.77,241.85-32.86
		c112.22-12.76,214.7-120.92,213.31-231.21c-0.2-16.03-10.17-36.78-22.53-47.02c-84.6-70.14-112.99-179.02-69.09-275.8
		c43.53-95.97,145.95-149.14,252.94-131.33c97.27,16.2,174.77,101.46,182.54,207.73c5.63,76.94-22.49,143.31-84.2,191.25
		c-21.15,16.43-28.63,32.58-29.25,58.87c-5.41,229.51-224.98,445.89-456.21,451.96C1119.19,1371.3,1057.07,1386.49,1010.42,1443.91z
		 M840.7,1716.46c61.24,0.42,114.06-50.13,115.84-110.85c1.84-62.62-55.35-120.4-118.28-119.51
		c-59.43,0.85-112.17,54.56-112.92,115.02C724.56,1664.2,776.39,1716.03,840.7,1716.46z M725.31,454.5
		c-0.88,61.34,53.41,117.2,114.65,117.95c58.04,0.71,114.39-53.5,116.56-112.14c2.3-62.05-50.16-116.82-113.03-118.04
		C779.44,341.03,726.22,391.58,725.31,454.5z M1526.75,799.31c64.29,0.73,116.41-50.03,116.7-113.66
		c0.28-61.28-55.2-117.03-116.17-116.72c-58.36,0.29-114.07,55.45-115.01,113.86C1411.25,746.04,1462.87,798.58,1526.75,799.31z"/>
</g>
</svg>
