<?xml version="1.0" encoding="UTF-8"?><svg id="Layer_2" xmlns="http://www.w3.org/2000/svg" viewBox="0 0 2048 2048"><g id="Layer_2-2"><path style="fill:#3D5A80;" d="M1938.77,2048H109.23c-54.17-18.64-90.57-55.07-109.23-109.23V109.23C18.66,55.06,55.06,18.66,109.23,0H1938.77c54.19,18.63,90.53,55.1,109.23,109.23V1938.77c-18.99,53.83-55.4,90.24-109.23,109.23ZM1023.01,682.83c175.7,0,351.4,.05,527.09-.03,57.11-.03,87.84-23.64,88.41-67.4,.58-44.51-30.04-69.38-86.33-69.4-351.4-.08-702.79-.07-1054.19-.01-57.22,0-87.89,23.53-88.5,67.34-.64,45.4,30.7,69.46,90.96,69.48,174.18,.06,348.37,.02,522.55,.02Zm.41,409.6c175.69,0,351.37,.06,527.06-.03,56.73-.03,87.63-24.04,88.04-67.87,.41-44.06-30.58-68.91-86.8-68.92-351.37-.07-702.75-.07-1054.12,0-56.93,.01-87.74,23.91-88.11,67.76-.36,43.93,30.89,69,86.87,69.03,175.69,.11,351.37,.04,527.06,.04Zm.33,409.6c175.69,0,351.37,.06,527.06-.03,56.52-.03,87.5-24.31,87.72-68.2,.22-43.87-30.9-68.59-87.14-68.6-351.37-.07-702.74-.07-1054.11,0-56.72,.01-87.61,24.19-87.78,68.09-.17,43.89,31.01,68.67,87.2,68.7,175.69,.1,351.37,.04,527.06,.04Z"/></g></svg>